<mxfile host="app.diagrams.net" modified="2024-07-18T05:47:38.907Z" agent="Mozilla/5.0 (Windows NT 10.0; Win64; x64) AppleWebKit/537.36 (KHTML, like Gecko) Chrome/126.0.0.0 Safari/537.36" etag="asVR6n2hBbEj5Zg1BX-L" version="24.7.1" type="github">
  <diagram id="C5RBs43oDa-KdzZeNtuy" name="Page-1">
    <mxGraphModel dx="1509" dy="785" grid="1" gridSize="10" guides="1" tooltips="1" connect="1" arrows="1" fold="1" page="1" pageScale="1" pageWidth="827" pageHeight="1169" math="0" shadow="0">
      <root>
        <mxCell id="WIyWlLk6GJQsqaUBKTNV-0" />
        <mxCell id="WIyWlLk6GJQsqaUBKTNV-1" parent="WIyWlLk6GJQsqaUBKTNV-0" />
        <mxCell id="C7jNSSyTP1f9ufkiQh4J-0" value="" style="rounded=0;html=1;jettySize=auto;orthogonalLoop=1;fontSize=11;endArrow=block;endFill=0;endSize=8;strokeWidth=1;shadow=0;labelBackgroundColor=none;edgeStyle=orthogonalEdgeStyle;entryX=0.5;entryY=0;entryDx=0;entryDy=0;" edge="1" parent="WIyWlLk6GJQsqaUBKTNV-1" source="C7jNSSyTP1f9ufkiQh4J-1" target="C7jNSSyTP1f9ufkiQh4J-3">
          <mxGeometry relative="1" as="geometry" />
        </mxCell>
        <mxCell id="C7jNSSyTP1f9ufkiQh4J-1" value="Заходим на agregatoreat.ru" style="rounded=1;whiteSpace=wrap;html=1;fontSize=12;glass=0;strokeWidth=1;shadow=0;" vertex="1" parent="WIyWlLk6GJQsqaUBKTNV-1">
          <mxGeometry x="190" y="20" width="120" height="40" as="geometry" />
        </mxCell>
        <mxCell id="C7jNSSyTP1f9ufkiQh4J-2" value="" style="edgeStyle=orthogonalEdgeStyle;rounded=0;orthogonalLoop=1;jettySize=auto;html=1;" edge="1" parent="WIyWlLk6GJQsqaUBKTNV-1" source="C7jNSSyTP1f9ufkiQh4J-3" target="C7jNSSyTP1f9ufkiQh4J-5">
          <mxGeometry relative="1" as="geometry" />
        </mxCell>
        <mxCell id="C7jNSSyTP1f9ufkiQh4J-3" value="Переходим на вкладку Закупки" style="rounded=1;whiteSpace=wrap;html=1;" vertex="1" parent="WIyWlLk6GJQsqaUBKTNV-1">
          <mxGeometry x="190" y="92" width="120" height="60" as="geometry" />
        </mxCell>
        <mxCell id="C7jNSSyTP1f9ufkiQh4J-4" value="" style="edgeStyle=orthogonalEdgeStyle;rounded=0;orthogonalLoop=1;jettySize=auto;html=1;" edge="1" parent="WIyWlLk6GJQsqaUBKTNV-1" source="C7jNSSyTP1f9ufkiQh4J-5" target="C7jNSSyTP1f9ufkiQh4J-10">
          <mxGeometry relative="1" as="geometry" />
        </mxCell>
        <mxCell id="C7jNSSyTP1f9ufkiQh4J-5" value="В зависимости от наших целей и времени суток выбираем статус" style="whiteSpace=wrap;html=1;rounded=1;" vertex="1" parent="WIyWlLk6GJQsqaUBKTNV-1">
          <mxGeometry x="190" y="180" width="120" height="60" as="geometry" />
        </mxCell>
        <mxCell id="C7jNSSyTP1f9ufkiQh4J-6" value="" style="edgeStyle=orthogonalEdgeStyle;rounded=0;orthogonalLoop=1;jettySize=auto;html=1;" edge="1" parent="WIyWlLk6GJQsqaUBKTNV-1" source="C7jNSSyTP1f9ufkiQh4J-10" target="C7jNSSyTP1f9ufkiQh4J-12">
          <mxGeometry relative="1" as="geometry" />
        </mxCell>
        <mxCell id="C7jNSSyTP1f9ufkiQh4J-7" value="Да" style="edgeLabel;html=1;align=center;verticalAlign=middle;resizable=0;points=[];" vertex="1" connectable="0" parent="C7jNSSyTP1f9ufkiQh4J-6">
          <mxGeometry x="-0.1333" y="-2" relative="1" as="geometry">
            <mxPoint as="offset" />
          </mxGeometry>
        </mxCell>
        <mxCell id="C7jNSSyTP1f9ufkiQh4J-8" value="" style="edgeStyle=orthogonalEdgeStyle;rounded=0;orthogonalLoop=1;jettySize=auto;html=1;" edge="1" parent="WIyWlLk6GJQsqaUBKTNV-1" source="C7jNSSyTP1f9ufkiQh4J-10" target="C7jNSSyTP1f9ufkiQh4J-14">
          <mxGeometry relative="1" as="geometry" />
        </mxCell>
        <mxCell id="C7jNSSyTP1f9ufkiQh4J-9" value="Нет" style="edgeLabel;html=1;align=center;verticalAlign=middle;resizable=0;points=[];" vertex="1" connectable="0" parent="C7jNSSyTP1f9ufkiQh4J-8">
          <mxGeometry x="-0.0333" y="-1" relative="1" as="geometry">
            <mxPoint as="offset" />
          </mxGeometry>
        </mxCell>
        <mxCell id="C7jNSSyTP1f9ufkiQh4J-10" value="Участвуем сегодня?" style="rhombus;whiteSpace=wrap;html=1;rounded=1;" vertex="1" parent="WIyWlLk6GJQsqaUBKTNV-1">
          <mxGeometry x="210" y="290" width="80" height="80" as="geometry" />
        </mxCell>
        <mxCell id="C7jNSSyTP1f9ufkiQh4J-11" value="" style="edgeStyle=orthogonalEdgeStyle;rounded=0;orthogonalLoop=1;jettySize=auto;html=1;entryX=0;entryY=0.5;entryDx=0;entryDy=0;exitX=0.5;exitY=1;exitDx=0;exitDy=0;" edge="1" parent="WIyWlLk6GJQsqaUBKTNV-1" source="C7jNSSyTP1f9ufkiQh4J-12" target="C7jNSSyTP1f9ufkiQh4J-16">
          <mxGeometry relative="1" as="geometry" />
        </mxCell>
        <mxCell id="C7jNSSyTP1f9ufkiQh4J-12" value="Выбираем вкладку &quot;Подача предложений&quot;" style="whiteSpace=wrap;html=1;rounded=1;" vertex="1" parent="WIyWlLk6GJQsqaUBKTNV-1">
          <mxGeometry x="30" y="300" width="120" height="60" as="geometry" />
        </mxCell>
        <mxCell id="C7jNSSyTP1f9ufkiQh4J-13" style="edgeStyle=orthogonalEdgeStyle;rounded=0;orthogonalLoop=1;jettySize=auto;html=1;entryX=1;entryY=0.5;entryDx=0;entryDy=0;exitX=0.5;exitY=1;exitDx=0;exitDy=0;" edge="1" parent="WIyWlLk6GJQsqaUBKTNV-1" source="C7jNSSyTP1f9ufkiQh4J-14" target="C7jNSSyTP1f9ufkiQh4J-16">
          <mxGeometry relative="1" as="geometry" />
        </mxCell>
        <mxCell id="C7jNSSyTP1f9ufkiQh4J-14" value="Выбираем вкладку &quot;Запланирована&quot;" style="whiteSpace=wrap;html=1;rounded=1;" vertex="1" parent="WIyWlLk6GJQsqaUBKTNV-1">
          <mxGeometry x="350" y="300" width="120" height="60" as="geometry" />
        </mxCell>
        <mxCell id="C7jNSSyTP1f9ufkiQh4J-15" value="" style="edgeStyle=orthogonalEdgeStyle;rounded=0;orthogonalLoop=1;jettySize=auto;html=1;" edge="1" parent="WIyWlLk6GJQsqaUBKTNV-1" source="C7jNSSyTP1f9ufkiQh4J-16" target="C7jNSSyTP1f9ufkiQh4J-18">
          <mxGeometry relative="1" as="geometry" />
        </mxCell>
        <mxCell id="C7jNSSyTP1f9ufkiQh4J-16" value="Настраиваем фильтры и сортировку" style="whiteSpace=wrap;html=1;rounded=1;" vertex="1" parent="WIyWlLk6GJQsqaUBKTNV-1">
          <mxGeometry x="190" y="400" width="120" height="60" as="geometry" />
        </mxCell>
        <mxCell id="C7jNSSyTP1f9ufkiQh4J-17" value="" style="edgeStyle=orthogonalEdgeStyle;rounded=0;orthogonalLoop=1;jettySize=auto;html=1;" edge="1" parent="WIyWlLk6GJQsqaUBKTNV-1" source="C7jNSSyTP1f9ufkiQh4J-18" target="C7jNSSyTP1f9ufkiQh4J-20">
          <mxGeometry relative="1" as="geometry" />
        </mxCell>
        <mxCell id="C7jNSSyTP1f9ufkiQh4J-18" value="Осуществляем поиск заявок" style="whiteSpace=wrap;html=1;rounded=1;" vertex="1" parent="WIyWlLk6GJQsqaUBKTNV-1">
          <mxGeometry x="190" y="490" width="120" height="60" as="geometry" />
        </mxCell>
        <mxCell id="C7jNSSyTP1f9ufkiQh4J-19" value="" style="edgeStyle=orthogonalEdgeStyle;rounded=0;orthogonalLoop=1;jettySize=auto;html=1;" edge="1" parent="WIyWlLk6GJQsqaUBKTNV-1" source="C7jNSSyTP1f9ufkiQh4J-20" target="C7jNSSyTP1f9ufkiQh4J-21">
          <mxGeometry relative="1" as="geometry" />
        </mxCell>
        <mxCell id="C7jNSSyTP1f9ufkiQh4J-20" value="Нашли заявку" style="whiteSpace=wrap;html=1;rounded=1;" vertex="1" parent="WIyWlLk6GJQsqaUBKTNV-1">
          <mxGeometry x="190" y="580" width="120" height="60" as="geometry" />
        </mxCell>
        <mxCell id="C7jNSSyTP1f9ufkiQh4J-21" value="Проводим быстрый анализ" style="whiteSpace=wrap;html=1;rounded=1;" vertex="1" parent="WIyWlLk6GJQsqaUBKTNV-1">
          <mxGeometry x="190" y="660" width="120" height="60" as="geometry" />
        </mxCell>
        <mxCell id="C7jNSSyTP1f9ufkiQh4J-22" value="" style="edgeStyle=orthogonalEdgeStyle;rounded=0;orthogonalLoop=1;jettySize=auto;html=1;" edge="1" parent="WIyWlLk6GJQsqaUBKTNV-1" source="C7jNSSyTP1f9ufkiQh4J-21" target="C7jNSSyTP1f9ufkiQh4J-23">
          <mxGeometry relative="1" as="geometry">
            <mxPoint x="250" y="720" as="sourcePoint" />
            <mxPoint x="250" y="980" as="targetPoint" />
          </mxGeometry>
        </mxCell>
        <mxCell id="C7jNSSyTP1f9ufkiQh4J-25" style="edgeStyle=orthogonalEdgeStyle;rounded=0;orthogonalLoop=1;jettySize=auto;html=1;entryX=0.5;entryY=0;entryDx=0;entryDy=0;" edge="1" parent="WIyWlLk6GJQsqaUBKTNV-1" source="C7jNSSyTP1f9ufkiQh4J-23" target="C7jNSSyTP1f9ufkiQh4J-24">
          <mxGeometry relative="1" as="geometry" />
        </mxCell>
        <mxCell id="C7jNSSyTP1f9ufkiQh4J-23" value="Идем на yandex.ru" style="rounded=1;whiteSpace=wrap;html=1;" vertex="1" parent="WIyWlLk6GJQsqaUBKTNV-1">
          <mxGeometry x="190" y="750" width="120" height="60" as="geometry" />
        </mxCell>
        <mxCell id="C7jNSSyTP1f9ufkiQh4J-29" value="" style="edgeStyle=orthogonalEdgeStyle;rounded=0;orthogonalLoop=1;jettySize=auto;html=1;" edge="1" parent="WIyWlLk6GJQsqaUBKTNV-1" source="C7jNSSyTP1f9ufkiQh4J-24" target="C7jNSSyTP1f9ufkiQh4J-28">
          <mxGeometry relative="1" as="geometry" />
        </mxCell>
        <mxCell id="C7jNSSyTP1f9ufkiQh4J-24" value="Ищем товар" style="rounded=1;whiteSpace=wrap;html=1;" vertex="1" parent="WIyWlLk6GJQsqaUBKTNV-1">
          <mxGeometry x="190" y="840" width="120" height="60" as="geometry" />
        </mxCell>
        <mxCell id="C7jNSSyTP1f9ufkiQh4J-31" value="" style="edgeStyle=orthogonalEdgeStyle;rounded=0;orthogonalLoop=1;jettySize=auto;html=1;" edge="1" parent="WIyWlLk6GJQsqaUBKTNV-1" source="C7jNSSyTP1f9ufkiQh4J-28" target="C7jNSSyTP1f9ufkiQh4J-30">
          <mxGeometry relative="1" as="geometry" />
        </mxCell>
        <mxCell id="C7jNSSyTP1f9ufkiQh4J-28" value="Находим поставщика" style="whiteSpace=wrap;html=1;rounded=1;" vertex="1" parent="WIyWlLk6GJQsqaUBKTNV-1">
          <mxGeometry x="190" y="940" width="120" height="60" as="geometry" />
        </mxCell>
        <mxCell id="C7jNSSyTP1f9ufkiQh4J-33" value="" style="edgeStyle=orthogonalEdgeStyle;rounded=0;orthogonalLoop=1;jettySize=auto;html=1;" edge="1" parent="WIyWlLk6GJQsqaUBKTNV-1" source="C7jNSSyTP1f9ufkiQh4J-30" target="C7jNSSyTP1f9ufkiQh4J-32">
          <mxGeometry relative="1" as="geometry" />
        </mxCell>
        <mxCell id="C7jNSSyTP1f9ufkiQh4J-30" value="Убеждаемся в легитимности и безопасности сделки" style="whiteSpace=wrap;html=1;rounded=1;" vertex="1" parent="WIyWlLk6GJQsqaUBKTNV-1">
          <mxGeometry x="190" y="1030" width="120" height="60" as="geometry" />
        </mxCell>
        <mxCell id="C7jNSSyTP1f9ufkiQh4J-34" style="edgeStyle=orthogonalEdgeStyle;rounded=0;orthogonalLoop=1;jettySize=auto;html=1;entryX=1;entryY=0.5;entryDx=0;entryDy=0;exitX=1;exitY=0.5;exitDx=0;exitDy=0;" edge="1" parent="WIyWlLk6GJQsqaUBKTNV-1" source="C7jNSSyTP1f9ufkiQh4J-32" target="C7jNSSyTP1f9ufkiQh4J-24">
          <mxGeometry relative="1" as="geometry">
            <Array as="points">
              <mxPoint x="380" y="1200" />
              <mxPoint x="380" y="870" />
            </Array>
          </mxGeometry>
        </mxCell>
        <mxCell id="C7jNSSyTP1f9ufkiQh4J-35" value="Нет" style="edgeLabel;html=1;align=center;verticalAlign=middle;resizable=0;points=[];" vertex="1" connectable="0" parent="C7jNSSyTP1f9ufkiQh4J-34">
          <mxGeometry x="-0.8408" y="2" relative="1" as="geometry">
            <mxPoint as="offset" />
          </mxGeometry>
        </mxCell>
        <mxCell id="C7jNSSyTP1f9ufkiQh4J-37" value="" style="edgeStyle=orthogonalEdgeStyle;rounded=0;orthogonalLoop=1;jettySize=auto;html=1;" edge="1" parent="WIyWlLk6GJQsqaUBKTNV-1" source="C7jNSSyTP1f9ufkiQh4J-32" target="C7jNSSyTP1f9ufkiQh4J-36">
          <mxGeometry relative="1" as="geometry" />
        </mxCell>
        <mxCell id="C7jNSSyTP1f9ufkiQh4J-38" value="Есть" style="edgeLabel;html=1;align=center;verticalAlign=middle;resizable=0;points=[];" vertex="1" connectable="0" parent="C7jNSSyTP1f9ufkiQh4J-37">
          <mxGeometry x="-0.275" y="2" relative="1" as="geometry">
            <mxPoint as="offset" />
          </mxGeometry>
        </mxCell>
        <mxCell id="C7jNSSyTP1f9ufkiQh4J-32" value="Товар есть?" style="rhombus;whiteSpace=wrap;html=1;rounded=1;" vertex="1" parent="WIyWlLk6GJQsqaUBKTNV-1">
          <mxGeometry x="210" y="1160" width="80" height="80" as="geometry" />
        </mxCell>
        <mxCell id="C7jNSSyTP1f9ufkiQh4J-42" value="" style="edgeStyle=orthogonalEdgeStyle;rounded=0;orthogonalLoop=1;jettySize=auto;html=1;" edge="1" parent="WIyWlLk6GJQsqaUBKTNV-1" source="C7jNSSyTP1f9ufkiQh4J-36" target="C7jNSSyTP1f9ufkiQh4J-41">
          <mxGeometry relative="1" as="geometry" />
        </mxCell>
        <mxCell id="C7jNSSyTP1f9ufkiQh4J-49" value="Сомнений нет" style="edgeLabel;html=1;align=center;verticalAlign=middle;resizable=0;points=[];" vertex="1" connectable="0" parent="C7jNSSyTP1f9ufkiQh4J-42">
          <mxGeometry x="-0.2182" y="-2" relative="1" as="geometry">
            <mxPoint as="offset" />
          </mxGeometry>
        </mxCell>
        <mxCell id="C7jNSSyTP1f9ufkiQh4J-46" style="edgeStyle=orthogonalEdgeStyle;rounded=0;orthogonalLoop=1;jettySize=auto;html=1;entryX=0.5;entryY=1;entryDx=0;entryDy=0;" edge="1" parent="WIyWlLk6GJQsqaUBKTNV-1" source="C7jNSSyTP1f9ufkiQh4J-36" target="C7jNSSyTP1f9ufkiQh4J-43">
          <mxGeometry relative="1" as="geometry" />
        </mxCell>
        <mxCell id="C7jNSSyTP1f9ufkiQh4J-48" value="Есть сомнения" style="edgeLabel;html=1;align=center;verticalAlign=middle;resizable=0;points=[];" vertex="1" connectable="0" parent="C7jNSSyTP1f9ufkiQh4J-46">
          <mxGeometry x="-0.4353" y="1" relative="1" as="geometry">
            <mxPoint as="offset" />
          </mxGeometry>
        </mxCell>
        <mxCell id="C7jNSSyTP1f9ufkiQh4J-36" value="Поставщик надежный?" style="rhombus;whiteSpace=wrap;html=1;rounded=1;" vertex="1" parent="WIyWlLk6GJQsqaUBKTNV-1">
          <mxGeometry x="210" y="1320" width="80" height="80" as="geometry" />
        </mxCell>
        <mxCell id="C7jNSSyTP1f9ufkiQh4J-51" value="" style="edgeStyle=orthogonalEdgeStyle;rounded=0;orthogonalLoop=1;jettySize=auto;html=1;" edge="1" parent="WIyWlLk6GJQsqaUBKTNV-1" source="C7jNSSyTP1f9ufkiQh4J-41" target="C7jNSSyTP1f9ufkiQh4J-50">
          <mxGeometry relative="1" as="geometry" />
        </mxCell>
        <mxCell id="C7jNSSyTP1f9ufkiQh4J-41" value="Вносим данные в таблицу" style="whiteSpace=wrap;html=1;rounded=1;" vertex="1" parent="WIyWlLk6GJQsqaUBKTNV-1">
          <mxGeometry x="190" y="1510" width="120" height="60" as="geometry" />
        </mxCell>
        <mxCell id="C7jNSSyTP1f9ufkiQh4J-47" style="edgeStyle=orthogonalEdgeStyle;rounded=0;orthogonalLoop=1;jettySize=auto;html=1;entryX=1;entryY=0.5;entryDx=0;entryDy=0;exitX=0.5;exitY=0;exitDx=0;exitDy=0;" edge="1" parent="WIyWlLk6GJQsqaUBKTNV-1" source="C7jNSSyTP1f9ufkiQh4J-43" target="C7jNSSyTP1f9ufkiQh4J-24">
          <mxGeometry relative="1" as="geometry" />
        </mxCell>
        <mxCell id="C7jNSSyTP1f9ufkiQh4J-43" value="Вносим данные в таблицу" style="whiteSpace=wrap;html=1;rounded=1;" vertex="1" parent="WIyWlLk6GJQsqaUBKTNV-1">
          <mxGeometry x="370" y="1260" width="120" height="60" as="geometry" />
        </mxCell>
        <mxCell id="C7jNSSyTP1f9ufkiQh4J-55" value="" style="edgeStyle=orthogonalEdgeStyle;rounded=0;orthogonalLoop=1;jettySize=auto;html=1;" edge="1" parent="WIyWlLk6GJQsqaUBKTNV-1" source="C7jNSSyTP1f9ufkiQh4J-50" target="C7jNSSyTP1f9ufkiQh4J-54">
          <mxGeometry relative="1" as="geometry" />
        </mxCell>
        <mxCell id="C7jNSSyTP1f9ufkiQh4J-50" value="Готовим КП" style="whiteSpace=wrap;html=1;rounded=1;" vertex="1" parent="WIyWlLk6GJQsqaUBKTNV-1">
          <mxGeometry x="190" y="1600" width="120" height="60" as="geometry" />
        </mxCell>
        <mxCell id="C7jNSSyTP1f9ufkiQh4J-61" value="" style="edgeStyle=orthogonalEdgeStyle;rounded=0;orthogonalLoop=1;jettySize=auto;html=1;" edge="1" parent="WIyWlLk6GJQsqaUBKTNV-1" source="C7jNSSyTP1f9ufkiQh4J-52" target="C7jNSSyTP1f9ufkiQh4J-60">
          <mxGeometry relative="1" as="geometry" />
        </mxCell>
        <mxCell id="C7jNSSyTP1f9ufkiQh4J-52" value="Участвуем в тендере" style="whiteSpace=wrap;html=1;rounded=1;" vertex="1" parent="WIyWlLk6GJQsqaUBKTNV-1">
          <mxGeometry x="190" y="1840" width="120" height="60" as="geometry" />
        </mxCell>
        <mxCell id="C7jNSSyTP1f9ufkiQh4J-56" style="edgeStyle=orthogonalEdgeStyle;rounded=0;orthogonalLoop=1;jettySize=auto;html=1;" edge="1" parent="WIyWlLk6GJQsqaUBKTNV-1" source="C7jNSSyTP1f9ufkiQh4J-54" target="C7jNSSyTP1f9ufkiQh4J-52">
          <mxGeometry relative="1" as="geometry" />
        </mxCell>
        <mxCell id="C7jNSSyTP1f9ufkiQh4J-57" value="Да" style="edgeLabel;html=1;align=center;verticalAlign=middle;resizable=0;points=[];" vertex="1" connectable="0" parent="C7jNSSyTP1f9ufkiQh4J-56">
          <mxGeometry x="-0.225" y="2" relative="1" as="geometry">
            <mxPoint as="offset" />
          </mxGeometry>
        </mxCell>
        <mxCell id="C7jNSSyTP1f9ufkiQh4J-58" style="edgeStyle=orthogonalEdgeStyle;rounded=0;orthogonalLoop=1;jettySize=auto;html=1;entryX=0;entryY=0.5;entryDx=0;entryDy=0;exitX=0;exitY=0.5;exitDx=0;exitDy=0;" edge="1" parent="WIyWlLk6GJQsqaUBKTNV-1" source="C7jNSSyTP1f9ufkiQh4J-54" target="C7jNSSyTP1f9ufkiQh4J-24">
          <mxGeometry relative="1" as="geometry">
            <mxPoint x="80" y="1320" as="targetPoint" />
          </mxGeometry>
        </mxCell>
        <mxCell id="C7jNSSyTP1f9ufkiQh4J-59" value="Нет" style="edgeLabel;html=1;align=center;verticalAlign=middle;resizable=0;points=[];" vertex="1" connectable="0" parent="C7jNSSyTP1f9ufkiQh4J-58">
          <mxGeometry x="-0.8297" y="-3" relative="1" as="geometry">
            <mxPoint as="offset" />
          </mxGeometry>
        </mxCell>
        <mxCell id="C7jNSSyTP1f9ufkiQh4J-54" value="Есть 3 КП?" style="rhombus;whiteSpace=wrap;html=1;rounded=1;" vertex="1" parent="WIyWlLk6GJQsqaUBKTNV-1">
          <mxGeometry x="210" y="1700" width="80" height="80" as="geometry" />
        </mxCell>
        <mxCell id="C7jNSSyTP1f9ufkiQh4J-60" value="" style="ellipse;whiteSpace=wrap;html=1;rounded=1;" vertex="1" parent="WIyWlLk6GJQsqaUBKTNV-1">
          <mxGeometry x="210" y="1940" width="80" height="80" as="geometry" />
        </mxCell>
      </root>
    </mxGraphModel>
  </diagram>
</mxfile>
